<svg version="1.1" id="Layer_1" xmlns="http://www.w3.org/2000/svg" xmlns:xlink="http://www.w3.org/1999/xlink" x="0px" y="0px"
	 width="100%" viewBox="0 0 267 67" enable-background="new 0 0 267 67" xml:space="preserve">
<path fill="#FFFFFF" opacity="1.000000" stroke="none" 
	d="
M1.000000,25.000000 
	C1.000000,17.005337 1.000000,9.010675 1.000000,1.012010 
	C89.935280,1.008007 178.870560,1.008007 267.902924,1.008007 
	C267.902924,23.253336 267.902924,45.507236 267.902924,67.880569 
	C179.000107,67.880569 90.000076,67.880569 1.000000,67.880569 
	C1.000000,57.924000 1.000000,47.930660 1.384153,37.514732 
	C2.523582,37.057926 3.278859,37.023705 4.207790,37.247200 
	C5.129731,38.067410 5.878017,38.629913 6.847130,39.439682 
	C8.283110,40.187439 9.498263,40.687927 10.920635,41.437851 
	C12.301443,42.197594 13.475033,42.707897 14.883063,43.472561 
	C18.069433,44.875286 21.021360,46.023655 24.299582,47.158539 
	C25.743996,46.529305 26.862116,45.913555 28.320839,45.147820 
	C31.092714,43.817722 33.523987,42.637615 36.301506,41.276283 
	C47.960766,35.791973 46.079262,39.336773 45.668297,25.692400 
	C43.758785,24.564083 41.933125,23.749491 39.876915,22.672319 
	C38.144417,21.746166 36.642464,21.082594 34.906685,20.207298 
	C33.497986,19.471004 32.323120,18.946432 30.901974,18.213705 
	C28.427452,17.045877 26.199211,16.086205 23.630581,15.071005 
	C21.863337,15.718681 20.436476,16.421886 18.683392,17.151760 
	C16.862974,17.995148 15.368785,18.811865 13.511881,19.712521 
	C9.099443,21.530973 5.049722,23.265488 1.000000,25.000000 
z"/>
<path fill="#9546FE" opacity="1.000000" stroke="none" 
	d="
M1.000000,25.250000 
	C5.049722,23.265488 9.099443,21.530973 13.522079,20.099777 
	C12.584941,23.533333 11.274891,26.663572 9.614161,29.837463 
	C8.562377,29.849874 7.861274,29.818636 7.071886,29.458136 
	C4.989068,28.085917 2.994534,27.042957 1.000000,26.000000 
	C1.000000,26.000000 1.000000,25.500000 1.000000,25.250000 
z"/>
<path fill="#2541BE" opacity="1.000000" stroke="none" 
	d="
M1.000000,26.458069 
	C2.994534,27.042957 4.989068,28.085917 6.997595,29.832623 
	C6.019104,32.687412 5.026619,34.838448 4.034135,36.989487 
	C3.278859,37.023705 2.523582,37.057926 1.384153,37.046074 
	C1.000000,33.638714 1.000000,30.277426 1.000000,26.458069 
z"/>
<path fill="#2541BE" opacity="1.000000" stroke="none" 
	d="
M45.752144,26.006126 
	C46.079262,39.336773 47.960766,35.791973 36.311150,40.836746 
	C37.313408,36.714607 38.652275,32.850784 40.188232,28.725132 
	C42.174263,27.644245 43.963203,26.825186 45.752144,26.006126 
z"/>
<path fill="#3541C7" opacity="1.000000" stroke="none" 
	d="
M39.991142,28.986958 
	C38.652275,32.850784 37.313408,36.714607 35.964905,41.017967 
	C33.523987,42.637615 31.092714,43.817722 28.326435,44.746006 
	C29.306417,40.598331 30.621403,36.702484 32.111214,32.580078 
	C32.863590,31.906641 33.441135,31.459763 34.315018,30.998867 
	C35.081944,30.663935 35.552536,30.343021 36.366013,29.987411 
	C37.802979,29.630796 38.897060,29.308876 39.991142,28.986958 
z"/>
<path fill="#7841EF" opacity="1.000000" stroke="none" 
	d="
M19.009617,17.125092 
	C20.436476,16.421886 21.863337,15.718681 23.636532,15.516750 
	C23.981373,19.294159 23.979879,22.570295 23.626850,25.931282 
	C20.915579,27.036232 18.555843,28.056328 15.902720,28.875097 
	C15.936786,27.057423 16.141750,25.403698 16.620832,23.833618 
	C17.312868,21.565639 18.203638,19.358303 19.009617,17.125092 
z"/>
<path fill="#4443D0" opacity="1.000000" stroke="none" 
	d="
M31.936390,32.806637 
	C30.621403,36.702484 29.306417,40.598331 27.985832,44.895992 
	C26.862116,45.913555 25.743996,46.529305 24.281990,46.697334 
	C23.964165,42.969566 23.990221,39.689507 24.346676,36.244568 
	C27.096846,34.988670 29.516617,33.897655 31.936390,32.806637 
z"/>
<path fill="#9546FE" opacity="1.000000" stroke="none" 
	d="
M23.978386,25.846428 
	C23.979879,22.570295 23.981373,19.294159 23.976917,15.572279 
	C26.199211,16.086205 28.427452,17.045877 30.849476,18.612801 
	C29.677168,21.870907 28.311081,24.521763 26.619827,27.122021 
	C25.522570,26.663094 24.750477,26.254761 23.978386,25.846428 
z"/>
<path fill="#8944F7" opacity="1.000000" stroke="none" 
	d="
M24.016277,36.409451 
	C23.990221,39.689507 23.964165,42.969566 23.955696,46.710823 
	C21.021360,46.023655 18.069433,44.875286 15.219896,43.404346 
	C15.549863,43.056595 15.777438,43.031410 16.357952,42.968407 
	C18.156929,40.498043 19.602962,38.065506 21.425865,35.707466 
	C22.540583,35.991127 23.278431,36.200291 24.016277,36.409451 
z"/>
<path fill="#8542F6" opacity="1.000000" stroke="none" 
	d="
M18.683392,17.151760 
	C18.203638,19.358303 17.312868,21.565639 16.620832,23.833618 
	C16.141750,25.403698 15.936786,27.057423 15.696579,29.107821 
	C14.883632,30.025471 13.983440,30.509069 12.806425,31.006012 
	C12.344951,31.025843 12.160300,31.032331 11.714486,30.902500 
	C10.957162,30.442057 10.461001,30.117933 9.964840,29.793810 
	C11.274891,26.663572 12.584941,23.533333 13.884794,20.015839 
	C15.368785,18.811865 16.862974,17.995148 18.683392,17.151760 
z"/>
<path fill="#6F46E8" opacity="1.000000" stroke="none" 
	d="
M36.023125,30.022110 
	C35.552536,30.343021 35.081944,30.663935 34.040970,30.865631 
	C32.633171,30.203985 31.795752,29.661554 31.093563,28.788052 
	C32.532700,25.777658 33.836609,23.098339 35.140514,20.419020 
	C36.642464,21.082594 38.144417,21.746166 39.594223,22.866245 
	C38.369091,25.555868 37.196106,27.788988 36.023125,30.022110 
z"/>
<path fill="#8542F6" opacity="1.000000" stroke="none" 
	d="
M34.906685,20.207298 
	C33.836609,23.098339 32.532700,25.777658 30.769547,28.744453 
	C29.188534,28.412159 28.066763,27.792389 26.944994,27.172617 
	C28.311081,24.521763 29.677168,21.870907 31.095755,18.820957 
	C32.323120,18.946432 33.497986,19.471004 34.906685,20.207298 
z"/>
<path fill="#4443D0" opacity="1.000000" stroke="none" 
	d="
M9.614161,29.837463 
	C10.461001,30.117933 10.957162,30.442057 11.579260,31.217052 
	C10.012232,34.176086 8.319267,36.684250 6.626304,39.192413 
	C5.878017,38.629913 5.129731,38.067410 4.207790,37.247200 
	C5.026619,34.838448 6.019104,32.687412 7.085879,30.161884 
	C7.861274,29.818636 8.562377,29.849874 9.614161,29.837463 
z"/>
<path fill="#5242D8" opacity="1.000000" stroke="none" 
	d="
M6.847130,39.439682 
	C8.319267,36.684250 10.012232,34.176086 11.840424,31.353371 
	C12.160300,31.032331 12.344951,31.025843 12.963182,31.293978 
	C14.567715,32.231670 15.738666,32.894737 16.534950,33.712597 
	C14.344661,36.307732 12.529038,38.748070 10.713417,41.188412 
	C9.498263,40.687927 8.283110,40.187439 6.847130,39.439682 
z"/>
<path fill="#6F46E8" opacity="1.000000" stroke="none" 
	d="
M10.920635,41.437851 
	C12.529038,38.748070 14.344661,36.307732 16.840271,33.792488 
	C18.656139,34.357559 19.792015,34.997536 20.503691,35.737057 
	C18.721331,38.226479 17.363171,40.616352 16.005013,43.006229 
	C15.777438,43.031410 15.549863,43.056595 14.985455,43.149990 
	C13.475033,42.707897 12.301443,42.197594 10.920635,41.437851 
z"/>
<path fill="#5242D8" opacity="1.000000" stroke="none" 
	d="
M36.366013,29.987411 
	C37.196106,27.788988 38.369091,25.555868 39.824768,23.128824 
	C41.933125,23.749491 43.758785,24.564083 45.668297,25.692402 
	C43.963203,26.825186 42.174263,27.644245 40.188232,28.725132 
	C38.897060,29.308876 37.802979,29.630796 36.366013,29.987411 
z"/>
<path fill="#F5F3FD" opacity="1.000000" stroke="none" 
	d="
M20.927893,35.637512 
	C19.792015,34.997536 18.656139,34.357559 17.214939,33.637695 
	C15.738666,32.894737 14.567715,32.231670 13.240007,31.280636 
	C13.983440,30.509069 14.883632,30.025471 15.989964,29.309147 
	C18.555843,28.056328 20.915579,27.036232 23.626850,25.931282 
	C24.750477,26.254761 25.522570,26.663094 26.619827,27.122021 
	C28.066763,27.792389 29.188534,28.412159 30.634319,29.075527 
	C31.795752,29.661554 32.633171,30.203985 33.744637,30.879650 
	C33.441135,31.459763 32.863590,31.906641 32.111214,32.580078 
	C29.516617,33.897655 27.096846,34.988670 24.346676,36.244568 
	C23.278431,36.200291 22.540583,35.991127 21.395187,35.717117 
	C20.987640,35.652271 20.927893,35.637512 20.927893,35.637512 
z"/>
<path fill="#7841EF" opacity="1.000000" stroke="none" 
	d="
M20.503691,35.737057 
	C20.927893,35.637512 20.987640,35.652271 21.018318,35.642620 
	C19.602962,38.065506 18.156929,40.498043 16.357952,42.968407 
	C17.363171,40.616352 18.721331,38.226479 20.503691,35.737057 
z"/>
</svg>